<?xml version="1.0" encoding="UTF-8"?>
<svg width="300" height="300" version="1.1" viewBox="0 0 79.375 79.375" xmlns="http://www.w3.org/2000/svg">
<g transform="translate(-46.065 -65.303)">
<path class="UnoptimicedTransforms" transform="matrix(.6616 0 0 .64468 128.99 22.344)" d="m-64.908 66.639c-2.6865 0.12833-4.8936 2.217-5.8424 4.6303-4.0771 7.1864-5.4283 15.44-7.9173 23.222-1.8239 5.9106-3.6701 11.828-4.9026 17.895-2.0328 7.3179-5.3017 14.214-8.4099 21.151-5.9341-0.82575-11.966-1.9102-17.961-1.0722-1.9215 0.3429-3.8641 1.7229-4.0696 3.7934-0.18684 1.1651-0.0658 2.4456-0.82128 3.4358-1.305 2.6331-1.1278 6.2708 1.216 8.2695 3.617 2.9183 8.2734 4.0357 12.755 4.8215-4.9229 8.7903-10.925 16.881-17.631 24.372-2.5456 2.6421-5.5098 5.1732-6.7456 8.7409-0.55608 1.9826 1.3367 4.2872 3.4277 3.7912 1.3561-0.30828 2.7471-0.22057 4.1125-0.0644 2.8937 0.0447 5.4956-1.4855 7.7046-3.211 3.9963-3.021 7.3549-6.771 11.094-10.088 4.3813-4.1151 8.2867-8.7766 11.226-14.036 1.5765-2.6098 3.1627-5.2136 4.7526-7.8153 3.5208-0.18043 7.0121-0.7563 10.541-0.82367 7.0896-0.38328 14.309-0.9641 20.983-3.5745 1.425-0.50642 2.8343-1.0564 4.2322-1.6331 7.0115 8.014 14.757 15.485 23.676 21.361 2.977 1.9529 5.9692 3.8964 9.0621 5.6599 1.9854 1.0048 4.208 1.8597 6.4691 1.6253 1.8061-0.3099 3.1807-2.4065 2.3438-4.1411-0.40828-1.082-1.1065-2.0777-1.1178-3.2736-0.44529-2.5988-2.0649-4.8285-4.0408-6.5057-3.29-3.0911-6.9408-5.8338-9.7484-9.4056-2.9457-3.5103-6.0193-6.9115-9.2094-10.201-0.61858-0.677-1.2242-1.3666-1.7958-2.0839 4.9052-2.4184 9.6797-5.0603 14.557-7.5082 1.8477-1.0733 3.7166-2.5956 4.2496-4.7572 0.28737-1.9312-1.4709-3.6463-3.3284-3.7563-1.6506-0.69371-3.1582-1.938-5.0389-1.905-3.2315-0.21482-6.2431 1.2051-9.2732 2.0987-3.0224 1.0389-6.1818 1.5868-9.248 2.4685-3.2866-7.212-6.8333-14.385-8.8177-22.094-1.383-5.1156-1.6439-10.432-2.3985-15.655-0.74542-5.4191-1.3121-10.868-2.4393-16.223-0.44097-1.6341-0.67149-3.4785-1.8699-4.7628-1.2301-1.1234-2.9911-1.0221-4.5391-1.1367-0.9823-0.78455-2.1181-1.3922-3.3877-1.5109-0.61078-0.09858-1.2313-0.11019-1.8486-0.09849zm0.59961 50.488c2.1529 5.4876 4.178 11.107 6.8594 16.393-4.9314 0.72127-9.9056 1.0954-14.861 1.6016 2.8229-6.3974 4.9988-13.05 7.3477-19.629 0.2181 0.54492 0.4362 1.0898 0.6543 1.6348z" fill="#faf9f6"/>
<path class="UnoptimicedTransforms" transform="matrix(.6616 0 0 .64468 17.059 24.55)" d="m84.919 148.76c-0.23173-6.2e-4 -0.46297 0-0.69608-5e-3 -0.35218-7e-3 -0.70606-0.0185-1.0609-0.0341s-0.71067-0.0355-1.0676-0.0589c-0.46663-0.0304-0.93244-0.0663-1.3968-0.10697-0.46437-0.0407-0.92745-0.0858-1.3896-0.13488-0.46213-0.049-0.92296-0.10212-1.3829-0.15761-0.4599-0.0555-0.91897-0.11361-1.3767-0.17363-0.91538-0.12003-1.826-0.24703-2.7326-0.37362-0.61203-0.0855-1.2192-0.16754-1.8273-0.25012-1.2162 2.4116-2.5277 4.7873-3.9936 7.0983-1.1544 1.8712-2.3526 3.7175-3.5956 5.5361-3.7013 5.4232-7.8105 10.607-12.242 15.546-4.4246 3.9576-7.9419 8.8987-4.6912 8.2858 3.3006-0.91043 4.1575 1.2962 8.83-1.7255 4.2036-2.791 8.0033-7.0871 12.036-10.666 1.5974-1.4975 3.2267-3.1312 4.8038-4.9212 2.244-2.5514 4.3431-5.3765 6.0503-8.46 1.9058-3.1254 3.8419-6.2624 5.732-9.3999z" fill="#eb2d79"/>
<path class="UnoptimicedTransforms" transform="matrix(.6616 0 0 .64468 17.059 24.55)" d="m84.919 148.76c-0.23173-6.2e-4 -0.46297 0-0.69608-5e-3 -0.35218-7e-3 -0.70606-0.0185-1.0609-0.0341s-0.71067-0.0355-1.0676-0.0589c-0.46663-0.0304-0.93244-0.0663-1.3968-0.10697-0.46437-0.0407-0.92745-0.0858-1.3896-0.13488-0.46213-0.049-0.92296-0.10212-1.3829-0.15761-0.4599-0.0555-0.91897-0.11361-1.3767-0.17363-0.91538-0.12003-1.826-0.24703-2.7326-0.37362-0.61203-0.0855-1.2192-0.16754-1.8273-0.25012-1.2162 2.4116-2.5277 4.7873-3.9936 7.0983-1.1544 1.8712-2.3526 3.7175-3.5956 5.5361-3.7013 5.4232-7.8105 10.607-12.242 15.546-4.4246 3.9576-7.9419 8.8987-4.6912 8.2858 3.3006-0.91043 4.1575 1.2962 8.83-1.7255 4.2036-2.791 8.0033-7.0871 12.036-10.666 1.5974-1.4975 3.2267-3.1312 4.8038-4.9212 2.244-2.5514 4.3431-5.3765 6.0503-8.46 1.9058-3.1254 3.8419-6.2624 5.732-9.3999z" fill="none"/>
<path class="UnoptimicedTransforms" transform="matrix(.6616 0 0 .64468 17.059 24.55)" d="m101.09 67.898c-2.4487 3.7806-4.9303 10.776-6.3572 17.124-2.1258 7.8648-5.2631 16.083-6.5536 23.419-2.1174 8.1592-5.837 15.926-9.3028 23.631-0.09139 0.2111-0.18057 0.41916-0.2713 0.62942 0.4221 0.0704 0.85969 0.13914 1.2702 0.21187 0.81419 0.14426 1.6142 0.29393 2.435 0.45424 0.34937 0.0805 0.70045 0.15528 1.0526 0.22428 0.42211 0.0829 0.84593 0.15749 1.2707 0.22427 0.4248 0.0668 0.85035 0.12552 1.2774 0.17725 0.42709 0.0517 0.85567 0.0966 1.2847 0.13436 0.42901 0.0377 0.85878 0.0687 1.2893 0.0935s0.86177 0.0429 1.2935 0.0558 0.86358 0.0202 1.296 0.0222 0.86527-1e-3 1.2981-9e-3c0.22943-4e-3 0.45888-0.013 0.68833-0.0196 0.35019-0.68891 0.69598-1.38 1.0351-2.0738 3.9646-8.6331 6.6586-17.914 9.9978-26.618-0.15074-0.42711-0.29663-0.85755-0.43564-1.2924-0.14928-0.467-0.29216-0.93826-0.42891-1.4134-0.13675-0.47508-0.26747-0.95385-0.39274-1.4361-0.12527-0.48224-0.24485-0.96778-0.35967-1.4562-0.11482-0.48847-0.2248-0.98002-0.33021-1.4738-0.10541-0.49379-0.2063-0.99008-0.30334-1.4883-0.097-0.4982-0.19037-0.99795-0.28009-1.4996-0.0897-0.5017-0.17599-1.0052-0.25941-1.5095-0.0834-0.50428-0.16419-1.0097-0.24237-1.5157-0.15635-1.0119-0.30282-2.026-0.44441-3.0391-0.1416-1.0131-0.27826-2.0254-0.41341-3.0324-0.0827-0.46188-0.15782-0.92636-0.22583-1.3927-0.06801-0.46632-0.12884-0.93426-0.18242-1.4025-0.05357-0.46824-0.10014-0.93691-0.13953-1.4046-0.03938-0.46766-0.07171-0.93432-0.09715-1.3989-0.02544-0.46456-0.04355-0.92701-0.05529-1.386-0.01174-0.45895-0.01669-0.91447-0.01499-1.3653 0.0017-0.45082 0.0099-0.89668 0.02481-1.3369 0.01491-0.44019 0.03621-0.87468 0.06408-1.3017 0.02786-0.42704 0.06226-0.84694 0.10284-1.2583 0.04057-0.41138 0.08753-0.81395 0.14056-1.2072 0.05303-0.39322 0.11201-0.77675 0.17725-1.1493 0.06524-0.37253 0.13674-0.73432 0.21394-1.0837s0.16016-0.68664 0.24908-1.0103c0.0889-0.32363 0.18384-0.63373 0.28422-0.92914 0.10039-0.29542 0.2062-0.57609 0.31781-0.84078 9e-3 -0.02021 0.0183-0.03682 0.0269-0.05684z" fill="#eb2d79"/>
<path class="UnoptimicedTransforms" transform="matrix(.6616 0 0 .64468 17.059 24.55)" d="m101.09 67.898c-2.4487 3.7806-4.9303 10.776-6.3572 17.124-2.1258 7.8648-5.2631 16.083-6.5536 23.419-2.1174 8.1592-5.837 15.926-9.3028 23.631-0.09139 0.2111-0.18057 0.41916-0.2713 0.62942 0.4221 0.0704 0.85969 0.13914 1.2702 0.21187 0.81419 0.14426 1.6142 0.29393 2.435 0.45424 0.34937 0.0805 0.70045 0.15528 1.0526 0.22428 0.42211 0.0829 0.84593 0.15749 1.2707 0.22427 0.4248 0.0668 0.85035 0.12552 1.2774 0.17725 0.42709 0.0517 0.85567 0.0966 1.2847 0.13436 0.42901 0.0377 0.85878 0.0687 1.2893 0.0935s0.86177 0.0429 1.2935 0.0558 0.86358 0.0202 1.296 0.0222 0.86527-1e-3 1.2981-9e-3c0.22943-4e-3 0.45888-0.013 0.68833-0.0196 0.35019-0.68891 0.69598-1.38 1.0351-2.0738 3.9646-8.6331 6.6586-17.914 9.9978-26.618-0.15074-0.42711-0.29663-0.85755-0.43564-1.2924-0.14928-0.467-0.29216-0.93826-0.42891-1.4134-0.13675-0.47508-0.26747-0.95385-0.39274-1.4361-0.12527-0.48224-0.24485-0.96778-0.35967-1.4562-0.11482-0.48847-0.2248-0.98002-0.33021-1.4738-0.10541-0.49379-0.2063-0.99008-0.30334-1.4883-0.097-0.4982-0.19037-0.99795-0.28009-1.4996-0.0897-0.5017-0.17599-1.0052-0.25941-1.5095-0.0834-0.50428-0.16419-1.0097-0.24237-1.5157-0.15635-1.0119-0.30282-2.026-0.44441-3.0391-0.1416-1.0131-0.27826-2.0254-0.41341-3.0324-0.0827-0.46188-0.15782-0.92636-0.22583-1.3927-0.06801-0.46632-0.12884-0.93426-0.18242-1.4025-0.05357-0.46824-0.10014-0.93691-0.13953-1.4046-0.03938-0.46766-0.07171-0.93432-0.09715-1.3989-0.02544-0.46456-0.04355-0.92701-0.05529-1.386-0.01174-0.45895-0.01669-0.91447-0.01499-1.3653 0.0017-0.45082 0.0099-0.89668 0.02481-1.3369 0.01491-0.44019 0.03621-0.87468 0.06408-1.3017 0.02786-0.42704 0.06226-0.84694 0.10284-1.2583 0.04057-0.41138 0.08753-0.81395 0.14056-1.2072 0.05303-0.39322 0.11201-0.77675 0.17725-1.1493 0.06524-0.37253 0.13674-0.73432 0.21394-1.0837s0.16016-0.68664 0.24908-1.0103c0.0889-0.32363 0.18384-0.63373 0.28422-0.92914 0.10039-0.29542 0.2062-0.57609 0.31781-0.84078 9e-3 -0.02021 0.0183-0.03682 0.0269-0.05684z" fill="none"/>
<path class="UnoptimicedTransforms" transform="matrix(.6616 0 0 .64468 17.059 24.551)" d="m106.85 65.91c-0.0388-0.02689-0.0776-0.0473-0.11628-0.07752-0.0449-0.01166-0.0908-0.02026-0.13591-0.03152 0.0176 0.0072 0.0357 0.01284 0.0532 0.02015 0.0669 0.0278 0.13275 0.05891 0.19896 0.08888z" fill="none"/>
<path class="UnoptimicedTransforms" transform="matrix(.6616 0 0 .64468 17.059 24.55)" d="m128.3 127.51c-1.0019-2.0033-1.93-4.0362-2.8096-6.0839-3.7986-8.1764-7.577-16.904-8.4067-25.889-0.48918-4.0752-0.99944-7.7528-1.7487-13.6-0.54902-4.2841-1.2669-9.791-2.3254-13.068 0.018 0.08499 0.0362 0.16983 0.0512 0.26097 0.0202 0.12361 0.038 0.25264 0.0527 0.38706 0.0147 0.13442 0.0267 0.27392 0.0362 0.41858 0.0189 0.28932 0.0273 0.59866 0.0264 0.92552-9.1e-4 0.32686-0.0109 0.67163-0.03 1.0315s-0.0472 0.73468-0.0827 1.1229-0.0784 0.78989-0.12867 1.202c-0.0502 0.4121-0.10727 0.83468-0.17054 1.2661-0.0633 0.43139-0.13262 0.87163-0.20722 1.3177-0.0746 0.44612-0.15451 0.89816-0.23874 1.3544-0.0842 0.45628-0.17295 0.91684-0.2651 1.3787-0.0922 0.46189-0.18791 0.9251-0.28629 1.388-0.19677 0.92586-0.40451 1.8491-0.61598 2.7518-0.21147 0.90265-0.42669 1.7848-0.63924 2.6277-0.21255 0.84294-0.42011 1.6446-0.62374 2.4107-0.20362 0.76609-0.40341 1.4966-0.60099 2.1978s-0.39264 1.3728-0.58705 2.0211-0.38827 1.2728-0.58239 1.88-0.38879 1.1969-0.58549 1.7751c-0.19671 0.57814-0.39521 1.1448-0.59738 1.7058-0.20218 0.56102-0.40805 1.1164-0.61857 1.6722-0.21052 0.55584-0.42576 1.1122-0.64751 1.6748-0.25791 0.61212-0.51075 1.2283-0.75964 1.848-0.24889 0.6196-0.49406 1.2424-0.73536 1.8686-0.0279 0.0725-0.0548 0.14599-0.0827 0.21859 0.49684 1.4079 1.0583 2.7724 1.7022 4.0788 2.935 7.4002 5.4913 15.036 9.4826 22.182 0.38275-0.0806 0.7654-0.16458 1.1477-0.25321 0.40901-0.0948 0.81749-0.19415 1.2258-0.29869 0.40827-0.10454 0.81589-0.21433 1.2232-0.32918s0.81403-0.23495 1.2201-0.3607c0.40605-0.12576 0.8119-0.25705 1.2165-0.39429 0.40456-0.13725 0.80797-0.28063 1.2108-0.42995 0.40282-0.14932 0.8048-0.30465 1.2056-0.46664 0.33617-0.1607 0.67439-0.31502 1.0149-0.46302 0.42101-0.18303 0.84605-0.35716 1.2743-0.52348s0.85983-0.32472 1.2929-0.47594c0.32989-0.11518 0.66128-0.22244 0.99271-0.3297z" fill="#feee21"/>
<path class="UnoptimicedTransforms" transform="matrix(.6616 0 0 .64468 17.059 24.551)" d="m128.3 127.51c-1.0019-2.0033-1.93-4.0362-2.8096-6.0839-3.7986-8.1764-7.577-16.904-8.4067-25.889-0.48918-4.0752-0.99944-7.7528-1.7487-13.6-0.54902-4.2841-1.2669-9.791-2.3254-13.068 0.018 0.08499 0.0362 0.16983 0.0512 0.26097 0.0202 0.12361 0.038 0.25264 0.0527 0.38706 0.0147 0.13442 0.0267 0.27392 0.0362 0.41858 0.0189 0.28932 0.0273 0.59866 0.0264 0.92552-9.1e-4 0.32686-0.0109 0.67163-0.03 1.0315s-0.0472 0.73468-0.0827 1.1229-0.0784 0.78989-0.12867 1.202c-0.0502 0.4121-0.10727 0.83468-0.17054 1.2661-0.0633 0.43139-0.13262 0.87163-0.20722 1.3177-0.0746 0.44612-0.15451 0.89816-0.23874 1.3544-0.0842 0.45628-0.17295 0.91684-0.2651 1.3787-0.0922 0.46189-0.18791 0.9251-0.28629 1.388-0.19677 0.92586-0.40451 1.8491-0.61598 2.7518-0.21147 0.90265-0.42669 1.7848-0.63924 2.6277-0.21255 0.84294-0.42011 1.6446-0.62374 2.4107-0.20362 0.76609-0.40341 1.4966-0.60099 2.1978s-0.39264 1.3728-0.58705 2.0211-0.38827 1.2728-0.58239 1.88-0.38879 1.1969-0.58549 1.7751c-0.19671 0.57814-0.39521 1.1448-0.59738 1.7058-0.20218 0.56102-0.40805 1.1164-0.61857 1.6722s-0.42576 1.1122-0.64751 1.6748c-0.25791 0.61212-0.51075 1.2283-0.75964 1.848-0.24889 0.6196-0.49406 1.2424-0.73536 1.8686-0.0279 0.0725-0.0548 0.14599-0.0827 0.21859 0.49684 1.4079 1.0583 2.7724 1.7022 4.0788 2.935 7.4002 5.4913 15.036 9.4826 22.182 0.38275-0.0806 0.7654-0.16458 1.1477-0.25321 0.40901-0.0948 0.81749-0.19415 1.2258-0.29869 0.40827-0.10454 0.81589-0.21433 1.2232-0.32918s0.81403-0.23495 1.2201-0.3607c0.40605-0.12576 0.8119-0.25705 1.2165-0.39429 0.40456-0.13725 0.80797-0.28063 1.2108-0.42995 0.40282-0.14932 0.8048-0.30465 1.2056-0.46664 0.33617-0.1607 0.67439-0.31502 1.0149-0.46302 0.42101-0.18303 0.84605-0.35716 1.2743-0.52348s0.85983-0.32472 1.2929-0.47594c0.32989-0.11518 0.66128-0.22244 0.99271-0.3297z" fill="none"/>
<path class="UnoptimicedTransforms" transform="matrix(.6616 0 0 .64468 17.059 24.55)" d="m122.66 142.23c2.8877 3.4207 6.0154 6.6627 9.1524 9.8392 6.1843 6.1068 13.103 11.417 20.549 15.771 4.8612 3.632 10.315 4.7634 8.8604 2.0893-1.7883-2.7089-0.11364-4.122-3.4768-7.5913-2.9107-2.921-7.2219-6.0424-9.9322-9.3793-2.8196-3.2498-6.1133-7.2767-9.5467-10.589-1.5332-1.6371-2.9297-3.3715-4.2194-5.1692-0.6178 0.29191-1.236 0.58302-1.8583 0.86868-0.78362 0.35971-1.5709 0.71445-2.3621 1.0635-0.37699 0.15923-0.75222 0.3195-1.1255 0.48008-1.4239 0.61266-2.8516 1.2428-4.2902 1.8666-0.58119 0.252-1.1656 0.50141-1.7508 0.74982z" fill="#feee21"/>
<path class="UnoptimicedTransforms" transform="matrix(.6616 0 0 .64468 17.059 24.551)" d="m122.66 142.23c2.8877 3.4207 6.0154 6.6627 9.1524 9.8392 6.1843 6.1068 13.103 11.417 20.549 15.771 4.8612 3.632 10.315 4.7634 8.8604 2.0893-1.7883-2.7089-0.11364-4.122-3.4768-7.5913-2.9107-2.921-7.2219-6.0424-9.9322-9.3793-2.8196-3.2498-6.1133-7.2767-9.5467-10.589-1.5332-1.6371-2.9297-3.3715-4.2194-5.1692-0.6178 0.29191-1.236 0.58302-1.8583 0.86868-0.78362 0.35971-1.5709 0.71445-2.3621 1.0635-0.37699 0.15923-0.75222 0.3195-1.1255 0.48008-1.4239 0.61266-2.8516 1.2428-4.2902 1.8666-0.58119 0.252-1.1656 0.50141-1.7508 0.74982z" fill="none"/>
<path class="UnoptimicedTransforms" transform="matrix(.6616 0 0 .64468 17.059 24.551)" d="m102.12 66.505c-0.23737 0.19828-0.47193 0.42926-0.7028 0.70487-0.11264 0.21266-0.2196 0.44338-0.32298 0.6842 6e-3 -9e-3 0.0117-0.01946 0.0176-0.02842 0.17536-0.26954 0.35095-0.52256 0.52555-0.75758 0.0873-0.11751 0.17401-0.23014 0.26096-0.33848 0.074-0.09218 0.14803-0.17928 0.2217-0.26458z" fill="none"/>
<path class="UnoptimicedTransforms" transform="matrix(.6616 0 0 .64468 17.059 24.55)" d="m102.78 66.046c-0.0649 0.0377-0.1302 0.07715-0.19585 0.11886-0.0482 0.0307-0.0967 0.06066-0.14469 0.09405-0.0318 0.02146-0.0636 0.04579-0.0956 0.06821-0.0758 0.05575-0.15159 0.11593-0.22685 0.1788-0.0737 0.08531-0.14772 0.17241-0.2217 0.26458-0.087 0.10834-0.17366 0.22097-0.26096 0.33848-0.1746 0.23501-0.35019 0.48804-0.52555 0.75758-6e-3 9e-3 -0.0117 0.01943-0.0176 0.02842-1.6968 3.9525-2.135 11.562-0.8878 18.528 0.87383 6.5106 1.7965 13.224 3.8897 19.155 0.0279-0.0726 0.0547-0.14607 0.0827-0.21859 0.2413-0.62617 0.48647-1.249 0.73536-1.8686 0.24889-0.61961 0.50173-1.2358 0.75964-1.848 0.22175-0.56261 0.43699-1.119 0.64751-1.6748 0.21052-0.55584 0.41639-1.1112 0.61857-1.6722 0.20217-0.56102 0.40067-1.1277 0.59738-1.7058 0.1967-0.57814 0.39137-1.1679 0.58549-1.7751s0.38798-1.2318 0.58239-1.88 0.38947-1.3199 0.58705-2.0211 0.39737-1.4317 0.60099-2.1978c0.20363-0.76609 0.41119-1.5678 0.62374-2.4107 0.21255-0.84294 0.42777-1.7251 0.63924-2.6277 0.21147-0.90265 0.41921-1.8259 0.61598-2.7518 0.0984-0.46293 0.19413-0.92614 0.28629-1.388 0.0922-0.46189 0.18087-0.92244 0.2651-1.3787 0.0842-0.45628 0.16414-0.90832 0.23874-1.3544 0.0746-0.44612 0.14396-0.88636 0.20722-1.3177 0.0633-0.43139 0.12031-0.85397 0.17054-1.2661 0.0502-0.4121 0.0932-0.81374 0.12867-1.202 0.0355-0.38825 0.0636-0.76309 0.0827-1.1229 0.019-0.35984 0.0291-0.7046 0.03-1.0315 9.1e-4 -0.32686-7e-3 -0.6362-0.0264-0.92552-9e-3 -0.14466-0.0214-0.28416-0.0362-0.41858-0.0148-0.13442-0.0325-0.26344-0.0527-0.38706-0.0149-0.09114-0.0332-0.17598-0.0512-0.26097-0.10879-0.33684-0.22021-0.65576-0.33642-0.94154-0.0403-0.04557-0.0813-0.08877-0.1235-0.12867-0.0434-0.04105-0.088-0.07876-0.13333-0.1142-0.0907-0.07089-0.18512-0.13101-0.28267-0.1819-0.0975-0.05089-0.19795-0.093-0.30127-0.12712-0.10332-0.03413-0.2093-0.06054-0.3173-0.08113-0.10799-0.02059-0.21811-0.03519-0.32969-0.04548-0.11158-0.01028-0.22493-0.01591-0.339-0.01912-0.22812-0.0064-0.45993-2e-3 -0.69143 5.16e-4 -0.23149 0.0025-0.46275 3e-3 -0.68885-0.01137-0.11305-0.0072-0.2248-0.01837-0.33486-0.03462s-0.21804-0.0376-0.32401-0.06615-0.20979-0.06393-0.31058-0.108c-0.10078-0.04407-0.19849-0.09685-0.293-0.15968-0.0473-0.03141-0.0941-0.06561-0.13953-0.10232-0.0455-0.03671-0.0897-0.07593-0.13332-0.11834-0.0436-0.04241-0.0861-0.08792-0.12764-0.13643-0.0415-0.04851-0.0821-0.10002-0.12144-0.15503-0.0864-0.04952-0.17564-0.09216-0.26304-0.13953-0.19158-0.06287-0.38293-0.15911-0.5736-0.29146-0.0662-0.02997-0.1321-0.06108-0.19896-0.08888-0.0176-0.0073-0.0356-0.013-0.0532-0.02015-1.2513-0.31251-2.5606-0.46008-3.8153 0.24391z" fill="#f77c56"/>
<path class="UnoptimicedTransforms" transform="matrix(.6616 0 0 .64468 17.059 24.551)" d="m102.78 66.045c-0.0649 0.0377-0.1302 0.07715-0.19585 0.11886-0.0482 0.0307-0.0967 0.06066-0.14469 0.09405-0.0318 0.02146-0.0636 0.04579-0.0956 0.06821-0.0758 0.05575-0.15159 0.11593-0.22685 0.1788-0.0737 0.08531-0.14772 0.17241-0.2217 0.26458-0.087 0.10834-0.17366 0.22097-0.26096 0.33848-0.1746 0.23501-0.35019 0.48804-0.52555 0.75758-6e-3 9e-3 -0.0117 0.01943-0.0176 0.02842-1.6968 3.9525-2.135 11.562-0.8878 18.528 0.87383 6.5106 1.7965 13.224 3.8897 19.155 0.0279-0.0726 0.0547-0.14607 0.0827-0.21859 0.2413-0.62617 0.48647-1.249 0.73536-1.8686 0.24889-0.61961 0.50173-1.2358 0.75964-1.848 0.22175-0.56261 0.43699-1.119 0.64751-1.6748 0.21052-0.55584 0.41639-1.1112 0.61857-1.6722 0.20217-0.56102 0.40067-1.1277 0.59738-1.7058 0.1967-0.57814 0.39137-1.1679 0.58549-1.7751s0.38798-1.2318 0.58239-1.88 0.38947-1.3199 0.58705-2.0211 0.39737-1.4317 0.60099-2.1978c0.20363-0.76609 0.41119-1.5678 0.62374-2.4107 0.21255-0.84294 0.42777-1.7251 0.63924-2.6277 0.21147-0.90265 0.41921-1.8259 0.61598-2.7518 0.0984-0.46293 0.19413-0.92614 0.28629-1.388 0.0922-0.46189 0.18087-0.92244 0.2651-1.3787 0.0842-0.45628 0.16414-0.90832 0.23874-1.3544 0.0746-0.44612 0.14396-0.88636 0.20722-1.3177 0.0633-0.43139 0.12031-0.85397 0.17054-1.2661 0.0502-0.4121 0.0932-0.81374 0.12867-1.202 0.0355-0.38825 0.0636-0.76309 0.0827-1.1229 0.019-0.35984 0.0291-0.7046 0.03-1.0315 9.1e-4 -0.32686-7e-3 -0.6362-0.0264-0.92552-9e-3 -0.14466-0.0214-0.28416-0.0362-0.41858-0.0148-0.13442-0.0325-0.26344-0.0527-0.38706-0.0149-0.09114-0.0332-0.17598-0.0512-0.26097-0.10879-0.33684-0.22021-0.65576-0.33642-0.94154-0.0403-0.04557-0.0813-0.08877-0.1235-0.12867-0.0434-0.04105-0.088-0.07876-0.13333-0.1142-0.0907-0.07089-0.18512-0.13101-0.28267-0.1819-0.0975-0.05089-0.19795-0.093-0.30127-0.12712-0.10332-0.03413-0.2093-0.06054-0.3173-0.08113-0.10799-0.02059-0.21811-0.03519-0.32969-0.04548-0.11158-0.01028-0.22493-0.01591-0.339-0.01912-0.22812-0.0064-0.45993-2e-3 -0.69143 5.16e-4 -0.23149 0.0025-0.46275 3e-3 -0.68885-0.01137-0.11305-0.0072-0.2248-0.01837-0.33486-0.03462s-0.21804-0.0376-0.32401-0.06615-0.20979-0.06393-0.31058-0.108c-0.10078-0.04407-0.19849-0.09685-0.293-0.15968-0.0473-0.03141-0.0941-0.06561-0.13953-0.10232-0.0455-0.03671-0.0897-0.07593-0.13332-0.11834-0.0436-0.04241-0.0861-0.08792-0.12764-0.13643-0.0415-0.04851-0.0821-0.10002-0.12144-0.15503-0.0864-0.04952-0.17564-0.09216-0.26304-0.13953-0.19158-0.06287-0.38293-0.15911-0.5736-0.29146-0.0662-0.02997-0.1321-0.06108-0.19896-0.08888-0.0176-0.0073-0.0356-0.013-0.0532-0.02015-1.2513-0.31251-2.5606-0.46008-3.8153 0.24391z" fill="none"/>
<path class="UnoptimicedTransforms" transform="matrix(.6616 0 0 .64468 17.059 24.55)" d="m128.3 127.51c0.23896 0.47779 0.47839 0.95538 0.72657 1.4294 0.30888 0.5971 0.62588 1.1917 0.95137 1.7828 0.16274 0.29558 0.32744 0.59039 0.49454 0.88418 0.1671 0.2938 0.33637 0.58669 0.50798 0.8785 0.1716 0.29182 0.34568 0.58266 0.52193 0.8723s0.35486 0.57781 0.53589 0.86506c0.18102 0.28726 0.3644 0.57315 0.55035 0.85783s0.37433 0.56818 0.56534 0.85008 0.38464 0.56236 0.58084 0.84129c0.10151 0.14431 0.20558 0.28699 0.30851 0.43047 4.8292-2.2818 9.5262-4.7457 14.146-7.2957 4.3642-1.6476 7.6342-4.8325 5.009-5.4508-2.744-0.38364-3.1225-2.5648-7.1551-1.9151-3.4272 0.60913-7.4581 2.4976-11.012 3.174-2.1496 0.4957-4.4518 1.058-6.7314 1.7958z" fill="#0062a9"/>
<path class="UnoptimicedTransforms" transform="matrix(.6616 0 0 .64468 128.98 22.349)" d="m-40.869 130.93c0.23896 0.47779 0.47838 0.95538 0.72657 1.4294 0.30888 0.5971 0.62588 1.1917 0.95136 1.7828 0.16274 0.29558 0.32744 0.59039 0.49454 0.88418 0.1671 0.2938 0.33637 0.58669 0.50798 0.8785 0.17161 0.29182 0.34569 0.58266 0.52193 0.8723 0.17625 0.28964 0.35486 0.57781 0.53588 0.86506 0.18103 0.28726 0.36441 0.57315 0.55035 0.85783s0.37433 0.56818 0.56534 0.85008 0.38464 0.56236 0.58084 0.84129c0.10151 0.14431 0.20558 0.28699 0.30851 0.43047 4.8292-2.2818 9.5263-4.7457 14.146-7.2957 4.3642-1.6476 7.6342-4.8325 5.009-5.4508-2.744-0.38364-3.1225-2.5648-7.1551-1.9151-3.4272 0.60913-7.4581 2.4976-11.012 3.174-2.1496 0.4957-4.4519 1.058-6.7314 1.7958z" fill="none"/>
<path class="UnoptimicedTransforms" transform="matrix(.6616 0 0 .64468 17.059 24.55)" d="m115.28 131.84c0.18509 0.33138 0.36974 0.66299 0.5612 0.99219 0.29677 0.49417 0.5993 0.98228 0.90693 1.4645 0.30762 0.48223 0.62033 0.95859 0.93792 1.4294 0.25245 0.37111 0.50895 0.73972 0.76895 1.1059 0.25999 0.36615 0.52358 0.72997 0.79065 1.0914 0.26706 0.36144 0.53766 0.72051 0.81132 1.0775 0.27366 0.35694 0.55014 0.71183 0.82992 1.0645s0.56259 0.70293 0.84801 1.0516c0.28542 0.34868 0.57344 0.69585 0.86403 1.0408 0.0216 0.0257 0.044 0.0508 0.0656 0.0765 2.0343-0.86346 4.0425-1.7566 6.042-2.6169 0.3733-0.16058 0.74801-0.32033 1.125-0.47956 1.4182-0.62567 2.8223-1.2718 4.2168-1.9306-0.10293-0.14348-0.207-0.28616-0.30851-0.43047-0.1962-0.27893-0.38983-0.55939-0.58084-0.84129s-0.37939-0.5654-0.56534-0.85008-0.36933-0.57057-0.55035-0.85783c-0.18103-0.28725-0.35964-0.57542-0.53589-0.86506-0.17624-0.28964-0.35032-0.58048-0.52193-0.8723-0.17161-0.29181-0.34087-0.5847-0.50798-0.8785-0.1671-0.29379-0.3318-0.5886-0.49454-0.88418-0.32549-0.59116-0.64249-1.1857-0.95137-1.7828-0.24818-0.47399-0.48761-0.95158-0.72657-1.4294-1.2016 0.38891-2.3974 0.82371-3.56 1.3291-0.34054 0.148-0.67927 0.30232-1.0154 0.46302-2.7796 1.1234-5.6101 1.9344-8.4496 2.5327z" fill="#6b9c72"/>
<path class="UnoptimicedTransforms" transform="matrix(.6616 0 0 .64468 128.98 22.349)" d="m-53.894 135.25c0.18509 0.33138 0.36974 0.66299 0.56121 0.99219 0.29677 0.49417 0.5993 0.98228 0.90692 1.4645 0.30762 0.48223 0.62034 0.95859 0.93793 1.4294 0.25245 0.37111 0.50895 0.73972 0.76894 1.1059 0.26 0.36615 0.52358 0.72997 0.79065 1.0914 0.26707 0.36144 0.53766 0.72051 0.81132 1.0775 0.27366 0.35694 0.55014 0.71183 0.82992 1.0645s0.56259 0.70293 0.84801 1.0516c0.28542 0.34868 0.57344 0.69585 0.86403 1.0408 0.02164 0.0257 0.04396 0.0508 0.06563 0.0765 2.0343-0.86346 4.0425-1.7566 6.042-2.6169 0.3733-0.16058 0.74801-0.32033 1.125-0.47956 1.4182-0.62567 2.8223-1.2718 4.2168-1.9306-0.10293-0.14348-0.207-0.28616-0.30851-0.43047-0.1962-0.27893-0.38984-0.55939-0.58084-0.84129s-0.37939-0.5654-0.56534-0.85008-0.36933-0.57057-0.55035-0.85783c-0.18103-0.28725-0.35964-0.57542-0.53588-0.86506-0.17625-0.28964-0.35033-0.58048-0.52193-0.8723-0.1716-0.29181-0.34087-0.5847-0.50798-0.8785-0.1671-0.29379-0.3318-0.5886-0.49454-0.88418-0.32549-0.59116-0.64249-1.1857-0.95136-1.7828-0.24819-0.47399-0.48761-0.95158-0.72657-1.4294-1.2016 0.38891-2.3974 0.82371-3.56 1.3291-0.34054 0.148-0.67927 0.30232-1.0154 0.46302-2.7796 1.1234-5.6101 1.9344-8.4496 2.5327z" fill="none"/>
<path class="UnoptimicedTransforms" transform="matrix(.6616 0 0 .64468 17.059 24.55)" d="m84.918 148.76c1.8689 5e-3 3.6913-0.12144 5.4214-0.44441 5.0352-0.4355 10.249-0.49461 15.454-1.14 1.7515-0.22292 3.4828-0.50873 5.18-0.88263 4.0764-0.97216 7.9293-2.4636 11.69-4.0597-0.0217-0.0257-0.044-0.0508-0.0656-0.0765-0.29059-0.34491-0.57861-0.69208-0.86403-1.0408-0.28542-0.34869-0.56823-0.69892-0.84801-1.0516s-0.55626-0.70759-0.82992-1.0645c-0.27367-0.35695-0.54426-0.71602-0.81132-1.0775-0.26707-0.36143-0.53066-0.72525-0.79065-1.0914-0.26-0.36616-0.5165-0.73477-0.76895-1.1059-0.31759-0.47078-0.6303-0.94714-0.93793-1.4294-0.30762-0.48223-0.61015-0.97034-0.90692-1.4645-0.19146-0.3292-0.37611-0.66081-0.5612-0.99219-3.7118 0.78203-7.4384 1.1997-11.086 1.4712-0.0146 2e-3 -0.23393 0.0263-0.24856 0.0279-3.5499 0.4117-7.2161 0.82686-10.883 0.93276-0.32838 0.646-0.6607 1.2904-0.99787 1.9327-0.34846 0.66375-0.70096 1.3257-1.0578 1.9859-0.35685 0.66024-0.71788 1.3189-1.0821 1.9761-0.41594 0.74863-0.83866 1.4978-1.2671 2.2474s-0.86241 1.4998-1.3012 2.25c-0.4388 0.75022-0.88262 1.5005-1.3296 2.251-0.36641 0.61522-0.7363 1.2306-1.1069 1.8459z" fill="#0062a9"/>
<path class="UnoptimicedTransforms" transform="matrix(.6616 0 0 .64468 128.98 22.349)" d="m-84.254 152.17c1.8689 5e-3 3.6913-0.12144 5.4214-0.44441 5.0352-0.4355 10.249-0.49461 15.454-1.14 1.7515-0.22292 3.4828-0.50873 5.18-0.88263 4.0764-0.97216 7.9293-2.4636 11.69-4.0597-0.02167-0.0257-0.04399-0.0508-0.06563-0.0765-0.29059-0.34491-0.57861-0.69208-0.86403-1.0408-0.28542-0.34869-0.56823-0.69892-0.84801-1.0516s-0.55626-0.70759-0.82992-1.0645c-0.27366-0.35695-0.54425-0.71602-0.81132-1.0775-0.26707-0.36143-0.53065-0.72525-0.79065-1.0914-0.25999-0.36616-0.5165-0.73477-0.76894-1.1059-0.31759-0.47078-0.6303-0.94714-0.93793-1.4294-0.30762-0.48223-0.61015-0.97034-0.90692-1.4645-0.19146-0.3292-0.37612-0.66081-0.56121-0.99219-3.7118 0.78203-7.4384 1.1997-11.086 1.4712-0.0146 2e-3 -0.23393 0.0263-0.24856 0.0279-3.5499 0.4117-7.2161 0.82686-10.883 0.93276-0.32838 0.646-0.6607 1.2904-0.99787 1.9327-0.34846 0.66375-0.70096 1.3257-1.0578 1.9859-0.35685 0.66024-0.71788 1.3189-1.0821 1.9761-0.41594 0.74863-0.83866 1.4978-1.2671 2.2474s-0.86241 1.4998-1.3012 2.25c-0.4388 0.75022-0.88262 1.5005-1.3296 2.251-0.36641 0.61522-0.7363 1.2306-1.1069 1.8459z" fill="none"/>
<path class="UnoptimicedTransforms" transform="matrix(.6616 0 0 .64468 17.059 24.55)" d="m78.606 132.7c-2.0895-0.34858-4.3519-0.67854-7.3732-1.0563-4.8419-0.60534-11.546-1.1338-13.295 0.47336v5.1e-4c-1.1349 1.4621-0.0335 3.4012-1.3704 4.8224-0.70378 1.6662-1.1873 3.4744 0.0429 5.4472 2.4196 2.4376 8.6318 4.5139 14.498 4.9568 0.29037 0.0381 0.58826 0.0809 0.87953 0.12041 0.05947-0.11791 0.12031-0.23539 0.17932-0.35347 0.21099-0.42219 0.41925-0.8455 0.62477-1.2697 0.20552-0.42418 0.40862-0.84898 0.60926-1.2748 0.4013-0.85176 0.79338-1.7069 1.1787-2.5637 0.38536-0.85677 0.76375-1.7151 1.1379-2.5745 0.37417-0.8594 0.74436-1.7195 1.1121-2.5792 0.36772-0.85965 0.73314-1.7191 1.0992-2.5766 0.22371-0.52195 0.45045-1.0473 0.67696-1.5725z" fill="#0062a9"/>
<path class="UnoptimicedTransforms" transform="matrix(.6616 0 0 .64468 128.98 22.349)" d="m-90.566 136.12c-2.0895-0.34858-4.3519-0.67854-7.3732-1.0563-4.8419-0.60534-11.546-1.1338-13.295 0.47336v5.1e-4c-1.1349 1.4621-0.0335 3.4012-1.3704 4.8224-0.70378 1.6662-1.1873 3.4744 0.0429 5.4472 2.4196 2.4376 8.6318 4.5139 14.498 4.9568 0.29037 0.0381 0.58826 0.0809 0.87953 0.12041 0.05947-0.11791 0.12031-0.23539 0.17932-0.35347 0.21099-0.42219 0.41925-0.8455 0.62477-1.2697 0.20552-0.42418 0.40862-0.84898 0.60926-1.2748 0.4013-0.85176 0.79338-1.7069 1.1787-2.5637 0.38536-0.85677 0.76375-1.7151 1.1379-2.5745 0.37417-0.8594 0.74436-1.7195 1.1121-2.5792 0.36772-0.85965 0.73314-1.7191 1.0992-2.5766 0.22371-0.52195 0.45045-1.0473 0.67696-1.5725z" fill="none"/>
<path class="UnoptimicedTransforms" transform="matrix(.6616 0 0 .64468 17.059 24.55)" d="m78.606 132.7c-0.22651 0.52523-0.45325 1.0506-0.67696 1.5725-0.36602 0.85753-0.73144 1.7169-1.0992 2.5766-0.36772 0.85965-0.73791 1.7198-1.1121 2.5792-0.37417 0.85939-0.75256 1.7178-1.1379 2.5745-0.38536 0.85676-0.77744 1.7119-1.1787 2.5637-0.20065 0.42587-0.40374 0.85067-0.60926 1.2748-0.20552 0.42419-0.41378 0.8475-0.62477 1.2697-0.05901 0.11808-0.11985 0.23556-0.17932 0.35347 3.3118 0.44967 6.6746 0.97392 10.106 1.1973 0.95009 0.0623 1.8928 0.0947 2.8246 0.0971 0.37061-0.61525 0.7405-1.2307 1.1069-1.8459 0.44702-0.75056 0.89083-1.5008 1.3296-2.251 0.4388-0.75023 0.87277-1.5004 1.3012-2.25s0.85116-1.4988 1.2671-2.2474c0.36422-0.65724 0.72525-1.3159 1.0821-1.9761 0.35685-0.66024 0.70935-1.3222 1.0578-1.9859 0.33718-0.64225 0.66949-1.2867 0.99787-1.9327-3.2594 0.0941-6.5194-0.0556-9.6976-0.67955-0.3522-0.069-0.70276-0.14325-1.0521-0.22376-1.2345-0.2411-2.4461-0.45658-3.7052-0.66662z" fill="#7d4690"/>
<path class="UnoptimicedTransforms" transform="matrix(.6616 0 0 .64468 128.98 22.349)" d="m-90.566 136.12c-0.22651 0.52523-0.45325 1.0506-0.67696 1.5725-0.36602 0.85753-0.73144 1.7169-1.0992 2.5766-0.36772 0.85965-0.73791 1.7198-1.1121 2.5792-0.37417 0.85939-0.75256 1.7178-1.1379 2.5745-0.38536 0.85676-0.77744 1.7119-1.1787 2.5637-0.20065 0.42587-0.40374 0.85067-0.60926 1.2748-0.20552 0.42419-0.41378 0.8475-0.62477 1.2697-0.05901 0.11808-0.11985 0.23556-0.17932 0.35347 3.3118 0.44967 6.6746 0.97392 10.106 1.1973 0.95009 0.0623 1.8928 0.0947 2.8246 0.0971 0.37061-0.61525 0.7405-1.2307 1.1069-1.8459 0.44702-0.75056 0.89083-1.5008 1.3296-2.251 0.4388-0.75023 0.87277-1.5004 1.3012-2.25s0.85116-1.4988 1.2671-2.2474c0.36422-0.65724 0.72525-1.3159 1.0821-1.9761 0.35685-0.66024 0.70935-1.3222 1.0578-1.9859 0.33718-0.64225 0.66949-1.2867 0.99787-1.9327-3.2594 0.0941-6.5194-0.0556-9.6976-0.67955-0.3522-0.069-0.70276-0.14325-1.0521-0.22376-1.2345-0.2411-2.4461-0.45658-3.7052-0.66662z" fill="none"/>
</g>
</svg>
