<?xml version="1.0" encoding="UTF-8"?>
<svg width="300" height="300" version="1.1" viewBox="0 0 79.375 79.375"
  xmlns="http://www.w3.org/2000/svg">
  <g>
    <path
      d="m40.146-0.072266c-1.5463 0.054492-2.9482 0.94758-3.752 2.7344-0.0038 0.00838-0.0099 0.015021-0.01367 0.023437-3.2894 5.7796-4.1424 12.464-6.3281 18.342l-0.0098 0.02539-0.0078 0.02734c-1.6375 4.9452-2.276 9.9519-4.4277 14.465l-0.0078 0.0196c-2.8992 6.2906-5.5009 12.656-8.6367 18.762-3.9684 7.0652-8.9812 13.558-14.766 19.234l0.11914-0.10547c-3.0254 2.3947-2.2149 6.6599 1.8047 5.4414 4.5938 0.60958 7.8428-3.4535 10.271-5.4922l0.02734-0.02344c4.1255-3.6366 8.3211-7.6298 11.084-12.723 4.872-7.7007 9.9448-15.635 12.814-24.564l0.0039-0.01367c2.5377-7.6269 6.2612-15.066 7.9219-23.184l0.00587-0.021484 0.0039-0.02148c0.52117-2.9923 1.723-6.7102 0.6836-10.266l-0.24023-0.82422-0.83398-0.21094c-1.3628-0.34301-3.6375-1.6983-5.7168-1.625z"
      fill="#faf9f6" />
    <path
      d="m40.57-0.021484c-1.9904 0.044269-3.938 0.9265-4.4141 3.7383-1.6075 6.3169 0.04742 12.771 0.99219 18.611l2e-3 0.01367 2e-3 0.01563c0.94252 5.1718 3.533 9.7993 5.1992 14.473l0.0039 0.01367 0.0039 0.01172c2.3521 6.2314 5.8945 12.012 10.582 16.805 5.445 6.0065 11.784 11.192 18.836 15.229 1.0338 0.63347 4.2219 2.7281 6.1641 1.8203 0.89247-0.41713 1.2851-1.2292 1.3301-2.1211l0.0098-0.18555-0.03711-0.18164c-0.69979-3.5279-2.8079-6.3258-5.7109-8.2949l-0.0059-0.0059c-3.8458-3.1354-6.7171-7.3542-10.52-10.904-4.9025-5.4703-7.5936-12.475-10.598-19.393l0.0078 0.01367c-2.5221-5.9761-2.5855-12.481-3.6328-19.057l-2e-3 -0.01758-0.0039-0.01953c-0.53324-2.8871-0.61499-6.644-2.4726-9.4902l-0.45898-0.70313-0.83789 0.023438c-1.0844 0.030252-2.8073-0.43083-4.4395-0.39453z"
      fill="#faf9f6" />
    <path
      d="m68.266 36.514c-1.4802 0.03653-2.9593 0.46292-4.2285 0.97656l0.05859-0.02344c-3.7953 1.3514-8.1224 1.785-12.055 3.6699-5.7714 2.1841-11.924 2.2748-18.195 2.8906-3.7125 0.35269-7.3773-0.37706-11.23-1.0762l-0.04492-0.0078-0.04297-0.0059c-3.8728-0.46482-8.1589-1.359-12.291-0.67578l-0.07031 0.01172-0.07031 0.01953c-0.39896 0.10571-1.0352 0.30059-1.5664 0.76367l-0.43164 0.37695-0.070312 0.57031c-0.16558 1.3496-3.3663 6.7647 1.0879 8.9824 4.5693 2.5397 10.062 2.5024 14.756 3.2148l0.0196 4e-3c4.1567 0.57305 8.2549-0.36182 12.121-0.41406h0.03126c5.2152-0.17979 10.518-1.0244 15.441-3.1523l0.04492-0.01758c6.3323-2.5089 12.514-5.3857 18.518-8.5859 1.6908-0.52712 5.2757-2.6518 4.2051-4.9648-0.33184-0.71692-1.0409-1.1091-1.7324-1.3164-1.3438-0.95123-2.8009-1.2761-4.2539-1.2402z"
      fill="#faf9f6" />
    <path
      d="m45.388 3.228c-2.5195-0.63414-6.2152-3.4353-7.8007 0.39852-3.2032 5.6145-4.0087 12.147-6.2389 18.145-1.6075 4.8546-2.2793 9.9879-4.4979 14.641-2.8959 6.2835-5.5191 12.701-8.6833 18.857-4.0408 7.1968-9.1446 13.806-15.03 19.582-1.67 1.3218-2.034 3.7833 0.74493 2.7394 3.941 0.75531 6.7509-2.8605 9.4365-5.1148 4.1242-3.6354 8.1754-7.5026 10.808-12.4 4.8764-7.7077 9.8483-15.484 12.658-24.236 2.5608-7.7007 6.2446-15.031 7.8799-23.024 0.54146-3.1089 1.6337-6.4745 0.72353-9.5878z"
      fill="#eb2d79" />
    <path
      d="m44.941 2.0923c-2.566 0.071589-6.8194-1.8472-7.4344 2.1788-1.5316 5.9682 0.05318 12.112 1.0115 18.037 0.91288 5.0091 3.439 9.4835 5.1343 14.239 2.2852 6.0541 5.7197 11.651 10.251 16.284 5.3532 5.9138 11.585 11.012 18.51 14.976 1.2652 0.77224 5.137 3.164 5.25 0.92473-0.62124-3.1319-2.5092-5.6423-5.1879-7.4243-3.987-3.2484-6.9131-7.5551-10.672-11.044-5.0987-5.6766-7.8836-12.925-10.879-19.823-2.5959-6.1509-2.6951-12.901-3.7309-19.403-0.55137-2.985-0.55582-6.3454-2.2522-8.9446z"
      fill="#feee21" />
    <path
      d="m39.033 1.8756c-1.1896 0.68677-1.4971 2.1164-1.7658 3.3365-0.708 3.5641-0.4171 7.2314 0.1975 10.786 0.5411 3.8336 1.12 7.6967 2.437 11.363 1.2437-2.9919 2.4626-6.0006 3.34-9.1183 1.1267-4.0199 2.227-8.0803 2.6277-12.241 0.0351-0.99448 0.1875-2.1117-0.3713-2.9943-0.9054-0.80445-2.4573 0.13332-3.2206-0.94148-0.9452-0.56849-2.2457-0.72548-3.2445-0.19088z"
      fill="#f77c56" />
    <path
      d="m9.4043 44.407c-0.29501 2.4045-2.9435 5.8593 0.26846 7.4585 4.3543 2.4493 9.5063 2.3443 14.312 3.0737 3.9776 0.54835 7.9207-0.37521 11.896-0.42893 5.1082-0.1761 10.225-0.99943 14.939-3.0454 6.3249-2.5039 12.499-5.3791 18.497-8.5804 1.3927-0.33974 5.434-2.9059 2.4277-3.5452-2.155-1.6762-4.9028-1.1908-7.2561-0.23845-3.9463 1.4051-8.2064 1.8021-12.005 3.6504-5.9374 2.2531-12.363 2.3768-18.607 2.9899-3.9269 0.37306-7.7994-0.3966-11.64-1.0934-3.9211-0.47062-7.921-1.3387-11.867-0.68618-0.34232 0.0907-0.69363 0.20817-0.96575 0.44541z"
      fill="#0062a9" />
    <path
      d="m23.054 44.771c-1.4134 3.1923-2.7666 6.4141-4.3786 9.5184 2.8394 0.3743 5.6821 0.8254 8.5548 0.8345 1.8949-3.0578 3.7282-6.1546 5.3872-9.3408-3.2227 0.2021-6.4152-0.4297-9.5634-1.0121z"
      fill="#7d4690" />
    <path
      d="m47.288 44.216c1.3746 2.3977 3.0738 4.6028 4.8856 6.701 2.5163-1.0672 5.0525-2.0924 7.5316-3.2409-1.4544-1.9675-2.6938-4.0784-3.7998-6.2482-2.849 0.9923-5.6123 2.2907-8.6174 2.7881z"
      fill="#6b9c72" />
  </g>
</svg>