<svg viewBox="0 0 10.192 26.743" xml:space="preserve" xmlns="http://www.w3.org/2000/svg"><path style="fill:none;fill-rule:evenodd;stroke:#000;stroke-width:.529167;stroke-linecap:round;stroke-linejoin:round;stroke-dasharray:none;paint-order:markers fill stroke" d="M4.515.265a2.19 2.153 0 0 0-2.19 2.153 2.19 2.153 0 0 0 .001.006h-.013V18.6A4.25 4.25 0 0 0 .265 22.23a4.25 4.25 0 0 0 4.25 4.25 4.25 4.25 0 0 0 4.25-4.25 4.25 4.25 0 0 0-2.05-3.636V2.424h-.012a2.19 2.153 0 0 0 0-.006A2.19 2.153 0 0 0 4.516.265Z"/><path style="fill:#01add8;fill-opacity:1;fill-rule:evenodd;stroke:none;stroke-width:.529167;stroke-linecap:round;stroke-linejoin:round;stroke-dasharray:none;paint-order:markers fill stroke" d="M3.44 16.16v3.27a3.005 3.005 0 0 0-1.93 2.799 3.005 3.005 0 0 0 3.005 3.005 3.005 3.005 0 0 0 3.005-3.005 3.005 3.005 0 0 0-1.93-2.806V16.16z"/><path style="fill:none;stroke:#000;stroke-width:.529167;stroke-linecap:round;stroke-linejoin:miter;stroke-dasharray:none;stroke-opacity:1" d="M7.901 3.24h2.027M7.901 9.7h2.027M7.901 16.16h2.027"/></svg>