<svg viewBox="0 0 10.192 26.743" xml:space="preserve" xmlns="http://www.w3.org/2000/svg"><path style="fill:none;fill-rule:evenodd;stroke:#000;stroke-width:.529167;stroke-linecap:round;stroke-linejoin:round;stroke-dasharray:none;paint-order:markers fill stroke" d="M17.766.265a2.19 2.153 0 0 0-2.19 2.153 2.19 2.153 0 0 0 .001.006h-.012V18.6a4.25 4.25 0 0 0-2.05 3.629 4.25 4.25 0 0 0 4.25 4.25 4.25 4.25 0 0 0 4.25-4.25 4.25 4.25 0 0 0-2.048-3.636V2.424h-.012a2.19 2.153 0 0 0 0-.006A2.19 2.153 0 0 0 17.766.265z" transform="translate(-13.251)"/><path style="fill:#ccc;fill-opacity:1;fill-rule:evenodd;stroke:none;stroke-width:.529167;stroke-linecap:round;stroke-linejoin:round;stroke-dasharray:none;paint-order:markers fill stroke" d="M16.691 9.7v9.73a3.005 3.005 0 0 0-1.93 2.799 3.005 3.005 0 0 0 3.005 3.005 3.005 3.005 0 0 0 3.005-3.005 3.005 3.005 0 0 0-1.93-2.806V9.7Z" transform="translate(-13.251)"/><path style="fill:none;stroke:#000;stroke-width:.529167;stroke-linecap:round;stroke-linejoin:miter;stroke-dasharray:none;stroke-opacity:1" d="M21.153 3.24h2.026M21.153 9.7h2.026M21.153 16.16h2.026" transform="translate(-13.251)"/></svg>