<svg viewBox="0 0 10.192 26.743" xml:space="preserve" xmlns="http://www.w3.org/2000/svg"><path style="fill:none;fill-rule:evenodd;stroke:#000;stroke-width:.529167;stroke-linecap:round;stroke-linejoin:round;stroke-dasharray:none;paint-order:markers fill stroke" d="M31.017.265a2.19 2.153 0 0 0-2.189 2.153 2.19 2.153 0 0 0 0 .006h-.012V18.6a4.25 4.25 0 0 0-2.049 3.629 4.25 4.25 0 0 0 4.25 4.25 4.25 4.25 0 0 0 4.25-4.25 4.25 4.25 0 0 0-2.049-3.636V2.424h-.012a2.19 2.153 0 0 0 0-.006A2.19 2.153 0 0 0 31.017.265z" transform="translate(-26.502)"/><path style="fill:#ed1b24;fill-opacity:1;fill-rule:evenodd;stroke:none;stroke-width:.529167;stroke-linecap:round;stroke-linejoin:round;stroke-dasharray:none;paint-order:markers fill stroke" d="M29.942 3.24v16.19a3.005 3.005 0 0 0-1.93 2.799 3.005 3.005 0 0 0 3.005 3.005 3.005 3.005 0 0 0 3.005-3.005 3.005 3.005 0 0 0-1.93-2.806V3.24Z" transform="translate(-26.502)"/><path style="fill:none;stroke:#000;stroke-width:.529167;stroke-linecap:round;stroke-linejoin:miter;stroke-dasharray:none;stroke-opacity:1" d="M34.404 3.24h2.026M34.404 9.7h2.026M34.404 16.16h2.026" transform="translate(-26.502)"/></svg>