<svg xmlns="http://www.w3.org/2000/svg" width="300" height="300" viewBox="0 0 79.375 79.375"><path fill="#faf9f6" d="M40.146-.072c-1.546.054-2.948.947-3.752 2.734-.004.009-.01.015-.014.024-3.29 5.78-4.142 12.464-6.328 18.342l-.01.025-.007.027c-1.638 4.946-2.276 9.952-4.428 14.465l-.008.02c-2.9 6.29-5.5 12.656-8.637 18.762-3.968 7.065-8.98 13.558-14.766 19.234l.12-.106C-.71 75.85.1 80.115 4.12 78.897c4.594.61 7.843-3.454 10.271-5.492l.028-.024c4.125-3.636 8.32-7.63 11.084-12.723 4.872-7.7 9.944-15.635 12.814-24.564l.004-.013c2.537-7.627 6.26-15.066 7.921-23.184l.006-.022.004-.021c.521-2.993 1.723-6.71.684-10.266l-.24-.825-.834-.21c-1.363-.344-3.638-1.699-5.717-1.626z"/><path fill="#faf9f6" d="M40.57-.021c-1.99.044-3.938.926-4.414 3.738-1.608 6.317.047 12.77.992 18.61l.002.014.002.016c.943 5.172 3.533 9.8 5.2 14.473l.003.014.004.012c2.352 6.23 5.895 12.012 10.582 16.805 5.445 6.006 11.784 11.192 18.836 15.229 1.034.633 4.222 2.728 6.164 1.82.893-.417 1.285-1.23 1.33-2.121l.01-.186-.037-.181c-.7-3.528-2.808-6.326-5.71-8.295l-.007-.006c-3.846-3.136-6.717-7.354-10.52-10.904-4.902-5.47-7.593-12.475-10.598-19.393l.008.013c-2.522-5.976-2.586-12.48-3.633-19.057l-.002-.017-.004-.02c-.533-2.887-.615-6.644-2.472-9.49l-.46-.703-.837.023c-1.085.03-2.807-.43-4.44-.394z"/><path fill="#faf9f6" d="M68.266 36.514c-1.48.037-2.96.463-4.228.977l.058-.024c-3.795 1.352-8.122 1.785-12.055 3.67-5.771 2.184-11.924 2.275-18.195 2.89-3.712.353-7.377-.376-11.23-1.076l-.045-.007-.043-.006c-3.873-.465-8.159-1.36-12.29-.676l-.071.012-.07.02c-.4.105-1.036.3-1.567.763l-.431.377-.07.57c-.166 1.35-3.367 6.765 1.087 8.983 4.57 2.54 10.062 2.502 14.756 3.214l.02.004c4.156.573 8.255-.362 12.12-.414h.032c5.215-.18 10.518-1.024 15.441-3.152l.045-.018a181.621 181.621 0 0 0 18.518-8.586c1.69-.527 5.276-2.651 4.205-4.964-.332-.717-1.04-1.11-1.732-1.317-1.344-.951-2.801-1.276-4.254-1.24z"/><path fill="#eb2d79" d="M45.388 3.228c-2.52-.634-6.215-3.435-7.8.399-3.204 5.614-4.01 12.147-6.24 18.145-1.607 4.854-2.279 9.987-4.498 14.64-2.895 6.284-5.519 12.702-8.683 18.858-4.04 7.196-9.144 13.806-15.03 19.582-1.67 1.321-2.034 3.783.745 2.739 3.941.755 6.751-2.86 9.437-5.115 4.124-3.635 8.175-7.502 10.808-12.4 4.876-7.708 9.848-15.484 12.658-24.236 2.56-7.7 6.244-15.03 7.88-23.024.541-3.109 1.633-6.474.723-9.588z"/><path fill="#feee21" d="M44.941 2.092c-2.566.072-6.82-1.847-7.434 2.18-1.532 5.967.053 12.111 1.011 18.036.913 5.01 3.44 9.484 5.134 14.24 2.286 6.053 5.72 11.65 10.251 16.283 5.354 5.914 11.585 11.012 18.51 14.976 1.266.772 5.137 3.164 5.25.925-.62-3.132-2.509-5.642-5.188-7.424-3.986-3.249-6.913-7.556-10.671-11.044-5.1-5.677-7.884-12.925-10.88-19.823-2.595-6.151-2.695-12.901-3.73-19.403-.552-2.985-.556-6.346-2.253-8.945z"/><path fill="#f77c56" d="M39.033 1.876c-1.19.686-1.497 2.116-1.766 3.336-.708 3.564-.417 7.232.198 10.786.54 3.834 1.12 7.697 2.437 11.363 1.243-2.992 2.462-6 3.34-9.118 1.126-4.02 2.227-8.08 2.627-12.241.035-.995.188-2.112-.37-2.994-.906-.805-2.458.133-3.222-.942-.945-.568-2.245-.725-3.244-.19z"/><path fill="#0062a9" d="M9.404 44.407c-.295 2.405-2.943 5.86.269 7.459 4.354 2.449 9.506 2.344 14.312 3.073 3.977.549 7.92-.375 11.896-.429 5.108-.176 10.225-1 14.939-3.045a180.08 180.08 0 0 0 18.497-8.58c1.392-.34 5.434-2.906 2.427-3.546-2.155-1.676-4.902-1.19-7.256-.238-3.946 1.405-8.206 1.802-12.005 3.65-5.937 2.253-12.363 2.377-18.607 2.99-3.927.373-7.799-.396-11.64-1.093-3.92-.47-7.92-1.339-11.867-.686-.342.09-.693.208-.965.445z"/><path fill="#7d4690" d="M23.054 44.771c-1.413 3.192-2.767 6.414-4.379 9.518 2.84.375 5.682.826 8.555.835 1.895-3.058 3.728-6.155 5.387-9.34-3.222.201-6.415-.43-9.563-1.013z"/><path fill="#6b9c72" d="M47.288 44.216c1.375 2.398 3.074 4.603 4.886 6.701 2.516-1.067 5.052-2.092 7.531-3.24-1.454-1.968-2.694-4.08-3.8-6.25-2.849.993-5.612 2.292-8.617 2.789z"/></svg>