<svg xmlns="http://www.w3.org/2000/svg" xml:space="preserve" width="429.963" height="415.75" viewBox="0 0 113.761 110.001"><path d="M154.45 17.761c-6.547.11-10.264 7.017-10.417 12.877-.784 10.914 3.202 21.378 6.28 31.656 3.172 8.369 7.118 16.51 12.024 24.003 6.44 8.385 13.415 16.629 22.075 22.801 1.653 1.144 6.467 3.938 6.167 3.484-1.762-1.248 3.227 1.848 4.414 2.35 3.918 2.09-2.552-1.755-3.871-2.737-1.793-1.193-5.391-3.741-1.59-1.162 3.643 2.35 7.356 4.617 11.279 6.474-1.552-1.074-6.667-4.175-5.842-3.817 1.683.942 3.32 1.55.852.027-3.75-2.211 7.296 3.868 2.04.499-3.207-2.112 2.76 1.642 4.047 2.209 1.54.783 5.515 2.873 2.17.63-1.518-1.265-6.003-4.107-5.818-4.26 3.15 1.782-1.59-1.622.58-.15 1.405 1.014 7.66 4.365 3.282 1.46-1.391-1.018-3.457-2.26-.554-.687 3.783 1.892-5.713-4.73-.928-1.653 3.478 2.146.36-.367-1.092-1.498 1.44 1.032 7.84 4.427 3.598 1.55-1.66-1.211-5.553-4.088-5.708-4.312 1.572 1.16 6.035 3.814 5.937 3.256-5.665-5.028-12.388-8.824-17.28-14.713-6.783-7.384-13.437-15.273-16.912-24.82-5.196-12.461-8.928-25.71-9.664-39.23-.052-4.363.877-9.487-1.994-13.174-.834-.744-1.975-1.066-3.074-1.063" style="fill:#ffe700;fill-opacity:1;fill-rule:nonzero;stroke:none;stroke-width:.264999;stroke-dasharray:none" transform="translate(-91.62 -17.76)"></path><path d="M154.45 17.761c-6.898.394-10.458 7.333-12.697 12.985-5.09 12.07-7.801 24.987-13.165 36.956-3.12 7.8-6.414 15.535-10.636 22.815-4.48 7.948-8.984 15.972-14.633 23.156-2.246 2.456-4.31 4.75-2.366 3.1-1.34 1.455-5.482 4.636-5.03 5.001 4.512-2.4-5.908 4.208-4.087 3.43 2.008-.215 8.538-4.86 4.213-1.836-2.113 1.408-3.19 2.205-.195.648 2.008-1.06 4.155-2.488 1.09-.34-1.554 1.191 4.896-3.01 1.358-.423-1.313 1.124-4.56 3.478-1.262 1.568 2.094-.82 9.131-5.943 4.06-2.232-2.003 1.463-6.613 4.576-7.09 5.172 2.061-.773 7.044-3.667 7.07-3.723-3.097 2.363 2.812-1.375-.996 1.345-3.647 2.799 3.18-1.319 4.427-2.604 4.954-3.874-7.155 5.665-1.09 1.492.948-.483 4.01-3.133 1.714-.973 1.5-.18 6.348-5.396 4.666-3.246 6.363-4.783 11.36-11.213 15.884-17.72 7.934-12.172 14.154-25.385 19.326-38.941 4.998-11.886 10.707-23.585 13.927-36.115.613-3.528.498-9.581-4.487-9.515" style="fill:#d73270;fill-opacity:1;fill-rule:nonzero;stroke:none;stroke-width:.264583" transform="translate(-91.62 -17.76)"></path><path d="M154.45 17.761c-2.05.117-3.807.813-5.32 1.882-3.215 2.475-4.992 6.98-5.097 10.995-.618 8.61 1.731 16.938 4.262 25.118 4.05-9.31 8.114-18.638 10.643-28.48.328-1.887.448-4.496-.274-6.505a8.7 8.7 0 0 0-.865-1.574 3.8 3.8 0 0 0-1.291-1.024 5.1 5.1 0 0 0-2.053-.412z" style="fill:#f27d41;fill-opacity:1;fill-rule:nonzero;stroke:none;stroke-width:.264999;stroke-dasharray:none" transform="translate(-91.62 -17.76)"></path><path d="M193.048 71.396c-1.725.05-4.662.806-4.174.138-3.615.577-7.025 2.147-10.54 3.179-8.256 2.904-16.509 6.028-25.238 7.174-8.441 1.502-17.099 1.688-25.566.275-4.744-.5-9.46-1.182-14.06-2.481-4.26-1.08-9.98-1.077-12.428 3.274-1.82 4.421 1.771 9.542 6.31 10.264 5.396 1.025 10.889 1.562 16.357 2.07 10.384.633 20.895.439 31.166-1.305 10.56-1.983 20.43-6.364 30.102-10.892 2.004-.993 7.067-2.626 7.278-3.324-1.484.135-3.763.973-1.042-.034 1.902-.638 6.417-1.869 6.32-2.953-1.461.409-7.505 2.548-3.607.834 1.458-.65 3.934-2.311.786-1.117 1.66-.896 4.589-2.439 1.13-1.472 1.838-.617 3.093-2.002.251-1.138-2.629.784 6.633-2.233 1.614-1.573-1.621.203-6.13 1.188-5.684 1.033 1.4-.053 6.17-2.027 2.244-1.39-1.634.389 2.64-.818.052-.404-1.237-.132-6.015 1.304-2.308.167l.616-.193z" style="fill:#005ea8;fill-opacity:1;fill-rule:nonzero;stroke:none;stroke-width:.264999;stroke-dasharray:none" transform="translate(-91.62 -17.76)"></path><path d="M171.76 77.018q-.814.278-1.633.545c-3.065 1-6.099 2.142-9.249 2.827q-.96.21-1.925.409c1.265 2.344 2.673 4.625 4.3 6.734q1.366 1.774 2.784 3.514c2.755-.916 5.453-2.009 8.142-3.104a94 94 0 0 0 3.664-1.598 109 109 0 0 1-3.728-5.188c-.887-1.315-1.653-2.711-2.354-4.14" style="fill:#6eaa49;fill-opacity:1;fill-rule:nonzero;stroke:none;stroke-width:.264999;stroke-dasharray:none" transform="translate(-91.62 -17.76)"></path><path d="M122.674 81.557a310 310 0 0 1-6.916 12.89c4.668.659 9.386 1.02 14.115 1.137 2.36-4.073 4.527-8.267 6.618-12.489-4.616-.24-9.213-1.03-13.817-1.538" style="fill:#614080;fill-opacity:1;fill-rule:nonzero;stroke:none;stroke-width:.264583" transform="translate(-91.62 -17.76)"></path></svg>